PathFileType	4	(X/Y/Z)	Static.trc																																																																									
DataRate	CameraRate	NumFrames	NumMarkers	Units	OrigDataRate	OrigDataStartFrame	OrigNumFrames																																																																					
100	100	12	25	mm	100	0	473																																																																					
Frame#	Time	AA			AI			Ant_Sh			CV7			GH			LAH			Lat_Sh			LCAJ			LPH			Post_Sh			RAH			RCAJ			RHLE			RHME			RPH			RUA			SJN			SXS			TS			TV8			centelbow			centpxt8			centijc7			centLPHRPH			ScapulaThoracicContactPt		
		X1	Y1	Z1	X2	Y2	Z2	X3	Y3	Z3	X4	Y4	Z4	X5	Y5	Z5	X6	Y6	Z6	X7	Y7	Z7	X8	Y8	Z8	X9	Y9	Z9	X10	Y10	Z10	X11	Y11	Z11	X12	Y12	Z12	X13	Y13	Z13	X14	Y14	Z14	X15	Y15	Z15	X16	Y16	Z16	X17	Y17	Z17	X18	Y18	Z18	X19	Y19	Z19	X20	Y20	Z20	X21	Y21	Z21	X22	Y22	Z22	X23	Y23	Z23	X24	Y24	Z24	X25	Y25	Z25
																																																																												
1	0	-224.0433502	1525.296509	713.9627075	-272.4660339	1354.767334	644.8248901	-111.0586929	1496.122925	720.8825073	-221.1125031	1594.248413	517.6270752	-168.2640533	1493.171631	716.7344971	-0.964740753	1772.701538	484.9886475	-171.6133728	1511.828125	749.6507568	-162.1446381	1557.229858	337.717865	-209.0210419	1725.248535	462.0708923	-250.1933746	1488.944702	710.7937012	-13.63282681	1772.248413	579.5053101	-166.6502228	1557.566895	688.039856	-178.4133606	1231.290283	848.0996704	-121.3613739	1177.884033	754.1983643	-210.5941467	1725.787109	578.0855103	-226.4591827	1336.9729	756.3829956	-58.6039238	1505.469971	520.7661133	0.405314863	1332.305054	522.0467529	-275.2166748	1496.765869	602.8291016	-238.822464	1306.647583	514.8982544	-149.8873672	1204.587158	801.1490173	-119.2085746	1319.476318	518.4725037	-139.8582134	1549.859192	519.1965942	-209.8075943	1725.517822	520.0782013	-257.2420197	1458.943237	653.8722331
2	0.01	-223.9996796	1525.356445	713.9926147	-272.4467773	1354.763062	644.8207397	-111.0433044	1496.150513	720.9046631	-221.0450439	1594.246826	517.5997925	-168.2085876	1493.188721	716.7636108	-0.935942113	1772.69873	484.9418335	-171.559906	1511.851685	749.678772	-162.0874481	1557.241577	337.7327271	-208.9758453	1725.235229	462.1061707	-250.140686	1488.943604	710.8284912	-13.52061653	1772.219971	579.4954224	-166.5522766	1557.594971	688.0435791	-178.3759155	1231.334106	848.1439209	-121.3208542	1177.865479	754.2421265	-210.5390625	1725.807617	578.102356	-226.415741	1337.013184	756.4146729	-58.58621597	1505.444092	520.7923584	0.482093096	1332.313721	522.045105	-275.1104126	1496.777466	602.8323364	-238.7314148	1306.706909	514.9560547	-149.8483849	1204.599792	801.1930237	-119.1246608	1319.510315	518.5005798	-139.81563	1549.845459	519.1960754	-209.7574539	1725.521423	520.1042633	-257.1856232	1458.965658	653.881897
3	0.02	-223.9215698	1525.401123	713.9539185	-272.3547668	1354.798218	644.8138428	-110.9868317	1496.167358	720.8833618	-220.9965363	1594.253906	517.6328125	-168.1602478	1493.208008	716.7374878	-0.90703094	1772.695923	484.8948669	-171.5143433	1511.875488	749.6665649	-162.0420837	1557.246826	337.7559814	-208.8905334	1725.248047	462.10495	-250.0639496	1488.968384	710.7982788	-13.37039852	1772.221069	579.4227295	-166.4740143	1557.592896	688.0548706	-178.3592224	1231.365356	848.1419678	-121.324646	1177.870972	754.2348022	-210.4714355	1725.820923	578.1135864	-226.4098511	1337.043579	756.4093018	-58.44203949	1505.457886	520.8060303	0.528010964	1332.280396	522.0507813	-275.0814819	1496.807983	602.8609009	-238.6846771	1306.710815	514.9331665	-149.8419342	1204.618164	801.188385	-119.0783331	1319.495605	518.4919739	-139.7192879	1549.855896	519.2194214	-209.6809845	1725.534485	520.1092682	-257.1192729	1459.002441	653.8762207
4	0.03	-223.8774414	1525.409546	713.9821777	-272.3713074	1354.825439	644.8294678	-110.9289703	1496.166138	720.8930054	-220.9451752	1594.286255	517.6020508	-168.0577545	1493.227661	716.7578125	-0.878256738	1772.693237	484.8480835	-171.4000092	1511.904907	749.6594238	-161.9805908	1557.267456	337.7243652	-208.7988586	1725.241455	462.1166992	-250.0100555	1489.012329	710.8258057	-13.34727097	1772.219482	579.4665527	-166.4619293	1557.618042	688.0496826	-178.2739716	1231.404663	848.1816406	-121.2836304	1177.913208	754.2570801	-210.3791199	1725.884277	578.0571899	-226.3158112	1337.04541	756.4101563	-58.3873291	1505.442871	520.7871094	0.585966527	1332.306152	522.060791	-274.9820251	1496.838257	602.8612061	-238.6914215	1306.69519	514.987793	-149.778801	1204.658936	801.2193604	-119.0527275	1319.500671	518.524292	-139.6662521	1549.864563	519.1945801	-209.5889893	1725.562866	520.0869446	-257.0769246	1459.024414	653.8909505
5	0.04	-223.8574066	1525.535645	713.9765625	-272.2701416	1354.84436	644.8322754	-110.8651581	1496.224243	720.8936157	-220.852005	1594.30127	517.6079102	-168.0094147	1493.262573	716.7629395	-0.860416174	1772.693604	484.780304	-171.3537903	1511.926392	749.647522	-161.9117432	1557.256714	337.7319031	-208.7068329	1725.249512	462.1203918	-249.9494019	1489.015747	710.8399048	-13.27372456	1772.205933	579.4663086	-166.3393402	1557.641968	688.0880737	-178.2741852	1231.427734	848.196167	-121.288559	1177.922241	754.2688599	-210.342041	1725.855957	578.0812378	-226.2226715	1337.068237	756.4154053	-58.31999969	1505.488037	520.7922363	0.63922143	1332.328003	522.0359497	-274.9584351	1496.841919	602.8630371	-238.6446533	1306.699341	514.9649658	-149.7813721	1204.674988	801.2325134	-119.0027159	1319.513672	518.5004578	-139.5860023	1549.894653	519.2000732	-209.524437	1725.552734	520.1008148	-257.0286611	1459.073975	653.890625
6	0.05	-223.7490845	1525.522827	713.8650513	-272.2377014	1354.865845	644.8620605	-110.7981033	1496.207397	720.9000244	-220.7773743	1594.317139	517.612854	-167.9223633	1493.265747	716.7791138	-0.748485744	1772.665161	484.7973633	-171.2514191	1511.922852	749.6090698	-161.8546448	1557.272217	337.6999512	-208.6607666	1725.255737	462.0935364	-249.8774109	1489.045654	710.8669434	-13.15015793	1772.2146	579.4122314	-166.2888184	1557.653809	688.0629272	-178.232193	1231.453735	848.2062988	-121.3141174	1177.931396	754.2852173	-210.2769623	1725.895508	578.0438843	-226.1842194	1337.057129	756.447998	-58.27087021	1505.460327	520.7798462	0.722870886	1332.339355	522.0444946	-274.9014587	1496.889526	602.8262939	-238.5593872	1306.727783	515.0280762	-149.7731552	1204.692566	801.2457581	-118.9182582	1319.533569	518.5362854	-139.5241222	1549.888733	519.1963501	-209.4688644	1725.575623	520.0687103	-256.9627482	1459.092733	653.8511353
7	0.06	-223.6947479	1525.568481	713.8897095	-272.2161865	1354.879272	644.8620605	-110.7164536	1496.234131	720.8987427	-220.7024536	1594.30603	517.6403809	-167.9031525	1493.271118	716.7763672	-0.598792434	1772.63147	484.7913208	-171.2403564	1511.95874	749.6400146	-161.7790375	1557.232422	337.7501221	-208.5707703	1725.231567	462.1039734	-249.7984619	1489.028198	710.8729248	-13.01609325	1772.229736	579.3915405	-166.2184143	1557.678101	688.0262451	-178.1409302	1231.496704	848.2261353	-121.2445908	1177.938354	754.3427124	-210.13974	1725.910645	578.074646	-226.1416779	1337.118286	756.4841309	-58.21284103	1505.454956	520.8053589	0.736237347	1332.306152	522.0425415	-274.8431396	1496.876099	602.8354492	-238.5467682	1306.774292	514.9681396	-149.6927605	1204.717529	801.2844238	-118.9052654	1319.540222	518.5053406	-139.4576473	1549.880493	519.2228699	-209.3552551	1725.571106	520.0893097	-256.9180247	1459.107951	653.8624064
8	0.07	-223.6403656	1525.561035	713.9130249	-272.1654358	1354.900391	644.8288574	-110.6635437	1496.207886	720.930542	-220.6360168	1594.307861	517.6505737	-167.804657	1493.278198	716.7866821	-0.4305484	1772.634033	484.8864746	-171.1442108	1511.985107	749.6114502	-161.7172546	1557.236328	337.7237244	-208.5137482	1725.243652	462.0727844	-249.7266083	1489.078003	710.8457642	-12.95147228	1772.208008	579.3616333	-166.1718903	1557.702148	688.0652466	-178.1069336	1231.559692	848.2730103	-121.182724	1177.931396	754.3430786	-210.0874786	1725.950439	578.0438843	-226.0911255	1337.168701	756.5059814	-58.0712738	1505.466553	520.8360596	0.823789179	1332.309082	522.0509644	-274.799408	1496.911011	602.8285522	-238.507431	1306.783325	515.0047607	-149.6448288	1204.745544	801.3080444	-118.8418209	1319.546204	518.5278625	-139.3536453	1549.887207	519.2433167	-209.3006134	1725.597046	520.0583344	-256.8684031	1459.124146	653.8568115
9	0.08	-223.6077271	1525.580688	713.9472046	-272.0656128	1354.858276	644.8793945	-110.5998001	1496.255249	720.9362793	-220.5502167	1594.315186	517.6856079	-167.7061768	1493.302368	716.8190308	-0.485641062	1772.657349	484.7768555	-171.0376282	1511.998047	749.6179199	-161.6704712	1557.245605	337.745575	-208.3897705	1725.218018	462.0553894	-249.6555634	1489.065063	710.9105835	-12.88137054	1772.244141	579.3723755	-166.0792236	1557.717041	688.027771	-178.0543823	1231.548584	848.289917	-121.169136	1177.941772	754.3643188	-210.0281219	1725.933838	578.0079346	-226.0040131	1337.160767	756.5166016	-58.01943207	1505.475342	520.8186035	0.845454931	1332.30249	522.0496216	-274.7024536	1496.895996	602.8673096	-238.460022	1306.766602	514.9771118	-149.6117592	1204.745178	801.3271179	-118.8072835	1319.534546	518.5133667	-139.2848244	1549.895264	519.2521057	-209.2089462	1725.575928	520.031662	-256.7919312	1459.111654	653.8979696
10	0.09	-223.5500641	1525.604126	713.9170532	-271.9953918	1354.891602	644.8471069	-110.4992523	1496.226807	720.9144287	-220.4817505	1594.340332	517.6810303	-167.6019287	1493.303223	716.7964478	-0.336104006	1772.623657	484.7710266	-170.9284668	1512.049072	749.6148682	-161.6140137	1557.261597	337.7174072	-208.3477325	1725.205688	462.0839539	-249.5799408	1489.105957	710.8844604	-12.81710625	1772.2229	579.3416138	-166.0206909	1557.696045	688.0379028	-178.0161896	1231.576172	848.3190918	-121.1791611	1177.98999	754.4130859	-209.9358521	1725.946777	578.0576172	-225.8652954	1337.248413	756.5134277	-57.90159988	1505.457642	520.8574829	0.924274981	1332.30603	522.0581665	-274.6575623	1496.915283	602.8548584	-238.4141693	1306.785767	515.00354	-149.5976753	1204.783081	801.3660889	-118.7449472	1319.545898	518.5308533	-139.1916752	1549.898987	519.2692566	-209.1417923	1725.576233	520.0707855	-256.7343394	1459.137004	653.8730062
11	0.1	-223.4627838	1525.61731	713.9743042	-271.8961182	1354.892822	644.845459	-110.3966064	1496.255005	720.9246216	-220.3957367	1594.366821	517.7173462	-167.5522308	1493.30957	716.8092651	-0.097836331	1772.666748	484.8769531	-170.8791809	1512.055908	749.5979004	-161.5093079	1557.210449	337.7576599	-208.2167053	1725.171753	462.0605774	-249.451004	1489.088989	710.9122925	-12.74737549	1772.259399	579.3515015	-165.9340363	1557.668823	688.1061401	-177.9491882	1231.627441	848.3433228	-121.1623001	1177.992432	754.425293	-209.8105316	1725.937134	578.0401001	-225.7386932	1337.208862	756.5521851	-57.84724426	1505.451172	520.8378296	1.02320385	1332.332764	522.0769043	-274.5729675	1496.940674	602.8602905	-238.32164	1306.808838	515.0072021	-149.5557442	1204.809937	801.3843079	-118.6492181	1319.570801	518.5420532	-139.1214905	1549.908997	519.2775879	-209.0136185	1725.554443	520.0503387	-256.6439565	1459.150269	653.8933512
12	0.11	-223.384552	1525.662476	713.9355469	-271.8359985	1354.927246	644.9140015	-110.3355255	1496.230469	720.9328613	-220.3048096	1594.375	517.6862183	-167.4421997	1493.317505	716.8221436	-0.290925831	1772.621826	484.6585388	-170.7626648	1512.108643	749.6348267	-161.47789	1557.230347	337.7001038	-208.1252441	1725.180176	462.0633545	-249.3740387	1489.138306	710.9244385	-12.59759617	1772.260986	579.27771	-165.8085175	1557.625488	688.1337891	-177.9147797	1231.615479	848.369751	-121.0951767	1178.005127	754.4798584	-209.7871704	1725.96228	578.0231934	-225.6465912	1337.252075	756.5619507	-57.73346329	1505.466675	520.8435059	1.033487082	1332.288452	522.0722046	-274.5096436	1496.947632	602.8317871	-238.3222046	1306.829834	515.0120239	-149.5049782	1204.810303	801.4248047	-118.6443588	1319.559143	518.5421143	-139.0191364	1549.920837	519.2648621	-208.9562073	1725.571228	520.0432739	-256.5767314	1459.179118	653.8937785
